<svg id="svg" xmlns="http://www.w3.org/2000/svg" viewBox="0 0 146 146">
    <g id="svgg">
        <path id="icon_outside"
              d="M72.75882,2.90435a31.34086,31.34086,0,0,0-.753,6.528c-.01,2.02.217,2.352,1.404,2.054l.778-.195-.183-3.827c-.213-4.466-.548-5.69-1.246-4.56m43.091,9.782c-1.188,1-2.196,2.652-1.973,3.233.276.721,1.138.92,1.481.342.165-.279.669-1.064,1.119-1.746,1.358-2.052.972-3.175-.627-1.829m-86.764.165a3.4264,3.4264,0,0,0,.706,1.597c.389.51,1.436,2.187,2.326,3.725,3.812,6.584,3.959,6.724,5.567,5.341l.83-.714-1.721-2.212c-5.878-7.554-6.442-8.218-7.057-8.309-.502-.073-.651.058-.651.572m38.86.859c-9.811.983-25.657,6.669-25.657,9.206,0,.775.851.78,1.861.012,2.33-1.774,9.547-4.639,14.385-5.712,7.632-1.693,17.513-1.909,17.513-.384,0,.51-.391.556-5.402.624-10.092.139-19.019,3.183-29.784,10.156a57.10254,57.10254,0,0,0-11.246,10.505c-2.212,2.752-2.506,2.904-3.206,1.662-.49-.868-.154-1.431,3.036-5.098,2.482-2.851,2.259-4.299-.258-1.675-7.918,8.255-14.164,22.324-14.977,33.737-.276,3.88.103,3.498-4.247,4.28-4.32.777-4.884.989-4.884,1.835,0,.75.64.983,4.051,1.475,1.485.213,3.173.477,3.751.586l1.05.198.214,2.387c1.369,15.255,8.917,30.488,19.546,39.447,2.236,1.886,2.336,2.212,1.098,3.598a32.27358,32.27358,0,0,0-2.599,4.03,35.00527,35.00527,0,0,1-2.554,4.011c-1.484,1.718-.896,3.195.674,1.691a3.35748,3.35748,0,0,0,.876-1.11c0-.356.82-1.389,3.191-4.02,1.067-1.185,2.242-2.603,2.61-3.151.978-1.455,1.638-1.398,4.306.376,15.664,10.417,37.405,12.582,54.587,5.436,3.69-1.535,10.874-5.55,11.372-6.356.259-.418,1.653-.384,1.653.041,0,1.209,5.869,6.789,6.49,6.169.257-.257-2.454-5.211-3.674-6.714-1.324-1.63-1.436-1.373,1.876-4.282a58.441,58.441,0,0,0,19.204-37.233l.53-4.468,1.665-.184c2.821-.311,6.361-1.007,6.746-1.327a.45626.45626,0,0,1,.696.027,2.939,2.939,0,0,0,2.641-.369c.596-.965-1.828-1.615-2.591-.695-.364.438-.44.431-.862-.08-.337-.409-1.521-.752-4.364-1.265-2.145-.387-3.93-.729-3.965-.759-.036-.031-.277-1.78-.537-3.886-1.994-16.179-8.848-28.892-21.154-39.239l-1.651-1.388,1.629-3.221c1.261-2.494,1.558-3.332,1.318-3.714-.619-.983-1.265-.654-3.792,1.93l-2.549,2.607-1.754-1.063a61.47329,61.47329,0,0,0-36.862-8.633m18.094,3.677c.855.854-.079,2.496-.99,1.74-.704-.585-.38-2.1.45-2.1a1.23785,1.23785,0,0,1,.54.36m-27.997,4.891c0,.697-.148.921-.655.993a1.045,1.045,0,0,1-.967-1.627c.644-.776,1.622-.394,1.622.634m21.552,1.787c38.076,4.724,56.374,51.178,31.085,78.92-1.562,1.713-2.037,2.421-1.792,2.666,1.605,1.605,10.376-11.533,12.956-19.405,1.444-4.408,2.527-11.699,2.218-14.942-.503-5.288-.486-6.265.106-6.265.776,0,.933.762.938,4.544.003,2.559.093,3.228.454,3.366.578.222.576,1.434-.009,6.202a48.57694,48.57694,0,0,1-14.198,29.053,57.59508,57.59508,0,0,1-6.498,5.51c-.165.125-.705.542-1.2.925-15.701,12.164-40.603,12.573-57.765.948-7.568-5.126-11.566-9.834-16.427-19.341-18.255-35.706,10.493-77.098,50.132-72.181m35.613,12.284c0,.713-.705,1.239-1.228.916a.93248.93248,0,0,1,.477-1.634c.592,0,.751.152.751.718m-54.75,7.616c-3.084.777-3.754,1.793-3.761,5.695l-.004,2.775h-1.993a6.80824,6.80824,0,0,0-5.683,2.561l-.995,1.214-.032,16.942c-.017,9.319-.025,17.174-.016,17.457.037,1.153,1.014,1.28,11.27,1.462,10.408.186,11.475.318,12.977,1.615l.826.712.955-.726c1.843-1.402,2.173-1.443,12.8-1.614l10.155-.163.573-.708c.549-.679.573-1.425.573-17.876v-17.167l-1.051-1.228a6.7537,6.7537,0,0,0-5.645-2.481h-2.006v-2.415c0-3.343-1.088-5.111-3.668-5.958-1.519-.499-23.35-.583-25.275-.097m24.082,4.929c.254.254.36,1.976.36,5.827,0,6.708-.096,6.417,2.115,6.417,2.033,0,2.094-.065,2.308-2.421.089-.979.274-1.781.412-1.781.673,0,2.968,1.378,2.975,1.786.005.256.038,6.744.075,14.419l.067,13.953-6.452.019c-7.356.021-7.877.135-10.862,2.379-2.26,1.699-2.602,1.689-5.311-.147-3.166-2.146-3.716-2.259-10.747-2.203-5.419.043-6.08-.005-6.205-.45-.108-.385-.024-26.528.091-28.174.029-.412,2.147-1.582,2.865-1.582.364,0,.462.379.462,1.79,0,2.149.403,2.489,2.785,2.352l1.566-.091.15-5.851a46.98143,46.98143,0,0,1,.393-6.227c.344-.531,22.422-.545,22.953-.015m42.07.991c0,.595-.151.75-.732.75-.9,0-1.242-.48-.757-1.063.606-.731,1.489-.545,1.489.313m-61.058,9.695c-1.124,1.124-.345,1.257,7.345,1.257,7.302,0,7.502-.016,7.502-.6,0-.33-.169-.598-.375-.596-.207.003-3.512-.045-7.345-.106-3.834-.062-7.041-.041-7.127.045m-5.858,5.459a2.04922,2.04922,0,0,0,.094,2.948c.648.608.99.652,5.078.652h4.383l1.097,1.276a19.56025,19.56025,0,0,1,1.583,2.091c.78,1.31,1.109,1.202,2.805-.913,2.106-2.627,1.623-2.444,6.457-2.449,4.996-.005,5.655-.273,5.598-2.275-.056-1.981.302-1.931-13.799-1.931-12.296,0-12.715.019-13.296.601m-57.99,7.319c-1.014.77-.447,1.383,1.28,1.383a1.04805,1.04805,0,0,0,1.047-1.498c-.265-.429-1.704-.358-2.327.115m69.658,7.91c-2.619,3.261-2.864,4.927-.584,3.983,1.3-.538,1.519-.215,1.519,2.243,0,3.566,1.072,3.496,1.455-.095.26-2.432.432-2.733,1.266-2.212.663.413,1.781.018,1.779-.629a26.35716,26.35716,0,0,0-3.84-5.015,9.52263,9.52263,0,0,0-1.595,1.725m-25.847,15.092c-.762.458-.723,2.56.055,2.976.368.197,4.365.311,10.915.311h10.335l1.313,1.229c3.207,3.001,7.061,2.825,10.149-.462l.721-.767h10.47c11.639,0,11.631.001,11.631-1.801,0-1.849.012-1.847-11.491-1.743-11.475.104-11.061.032-13.634,2.384-1.866,1.706-3.88,1.689-5.975-.051-2.818-2.341-2.095-2.219-13.611-2.31-6.854-.054-10.53.025-10.878.234m79.595,1.937c0,.6-.15.75-.75.75s-.75-.15-.75-.75c0-.601.15-.751.75-.751s.75.15.75.751m-89.797,4.075c-.899.523-.617.973,2.55,4.059,5.303,5.167,8.064,7.175,13.935,10.138,4.209,2.123,10.422,4.246,11.367,3.884.831-.319.484-1.242-.546-1.453a56.76608,56.76608,0,0,1-14.22-6.051c-.684-.467-2.034-1.38-3.001-2.029a54.94531,54.94531,0,0,1-5.575-5.026c-2.099-2.116-3.854-3.842-3.901-3.837a4.09417,4.09417,0,0,0-.609.315m85.296,3.584c0,.788-.896.771-1.759-.033-.525-.49-.597-.718-.327-1.043.485-.584,2.086.242,2.086,1.076m-88.282,3.953a.97256.97256,0,0,1-.381,1.682c-.633.289-.805.246-1.186-.298a1.04546,1.04546,0,1,1,1.567-1.384m65.626,4.02a51.45338,51.45338,0,0,1-9.302,4.525c-2.878,1.1-3.697,1.598-2.631,1.598,2.5,0,15.169-6.336,14.334-7.168-.2-.199-1.004.151-2.401,1.045m10.286,1.189a1.196,1.196,0,0,1,.075,2.076c-1.22,1.104-2.806-.903-1.637-2.072.586-.586.731-.586,1.562-.004m-69.384,1.385a.95432.95432,0,0,1-1.784.675.91513.91513,0,0,1,.879-1.327.88223.88223,0,0,1,.905.652m40.644,2.873c-3.798.525-4.502.771-4.502,1.57,0,.774,1.836.817,6,.142,3.174-.515,3.508-.692,3.02-1.604-.379-.708-.21-.704-4.518-.108m-6.062,8.538c.685.685.076,2.341-.862,2.341-.585,0-1.464-1.19-1.269-1.719a1.28774,1.28774,0,0,1,2.131-.622m41.831,2.101c-.516.515-.451.818.315,1.457,1.344,1.121,2.502.305,1.575-1.11a1.17277,1.17277,0,0,0-1.89-.347m-43.233,5.445c-.391.471.332,9.989.794,10.451.606.605.922-.714,1.295-5.4.338-4.238.332-4.934-.043-5.172a1.75168,1.75168,0,0,0-2.046.121"
              style="fill-rule:evenodd"/>
        <path id="icon_inside"
              d="M-126.95319,77.04234v150.037h400v-300.075h-400v150.038m197.749-75.487c0,.491-.931.757-2.7.769-4.488.032-16.927,2.842-20.101,4.54a5.6651,5.6651,0,0,1-1.294.56c-.414,0-7.99,3.868-10.647,5.436-3.677,2.169-4.744,1.711-1.316-.564a70.55961,70.55961,0,0,1,32.758-11.139c3.084-.226,3.3-.2,3.3.398m10.644-.129c9.40042.452,25.3137,6.75408,31.88305,12.18455-.77608.26508-1.96135-.89984-2.477-1.08584-3.27319-1.50718-16.0437-5.66517-18.99505-7.2018C89.669,4.18731,64.09328.52147,81.43982,1.42634m-7.633,1.216a23.81967,23.81967,0,0,1,.637,4.514c.35,4.452.246,4.769-1.564,4.769-1.43,0-1.612-.46-1.342-3.4.506-5.526,1.325-7.648,2.269-5.883m43.742,10.069a2.39867,2.39867,0,0,1-.612,1.798,8.99066,8.99066,0,0,0-1.06,1.692c-.42.973-1.207,1.065-2.205.258-.855-.694-.573-1.397,1.424-3.541,1.469-1.578,2.312-1.649,2.453-.207m-86.175.49a31.55565,31.55565,0,0,1,2.378,2.925,18.98032,18.98032,0,0,0,1.373,1.802,26.97158,26.97158,0,0,1,3.562,4.781c.01,2.574-3.75,2.005-4.831-.731-.102-.258-1.227-2.154-3.72-6.269-.33-.545-.847-1.343-1.15-1.773-1.459-2.073.532-2.687,2.388-.735m51.425.609a61.67264,61.67264,0,0,1,21.959,8.118l1.703,1.09,1.297-1.396c3.324-3.576,4.381-4.243,5.289-3.335.607.607.418,1.353-1.124,4.438l-1.485,2.97,2.01,1.725c12.294,10.551,20.717,27.081,20.769,40.761.006,1.777.113,1.842,4.178,2.52a16.44141,16.44141,0,0,1,4.153,1.045c.33.329.61.35,1.283.096,1.25-.472,2.534.036,2.534,1.002,0,1.003-1.425,1.714-2.569,1.282a1.834,1.834,0,0,0-1.217-.083,32.53252,32.53252,0,0,1-4.016.759c-4.412.659-4.043.291-4.391,4.38-.529,6.209-1.992,11.546-5.21,19.015a74.54921,74.54921,0,0,1-5.849,9.752c-.086.083-.913,1.096-1.838,2.251a64.66964,64.66964,0,0,1-7.438,7.65l-1.805,1.57.875,1.091a32.66116,32.66116,0,0,1,3.302,5.593,10.12052,10.12052,0,0,0,1.645,2.4c1.252,1.056,1.156,3.151-.144,3.151-1.125,0-2.483-2.2-1.787-2.896.22-.221.063-.477-.525-.853-1.251-.8-5.399-5.086-5.631-5.818-.261-.822-.438-.803-1.842.203-5.158,3.698-15.144,8.004-20.375,8.787a27.4482,27.4482,0,0,0-3.053.612c-1.53.477-9.238.784-13.774.549a59.28877,59.28877,0,0,1-28.493-9.433c-2.887-1.863-3.38-1.931-4.041-.559a21.91852,21.91852,0,0,1-2.657,3.297,23.60262,23.60262,0,0,0-2.66,3.26c-.701,1.391-1.926,2.551-2.692,2.551-1.061,0-.966-1.767.164-3.065a36.241,36.241,0,0,0,2.625-4.096,26.94011,26.94011,0,0,1,2.438-3.75c.985-.943.841-1.534-.725-2.961-8.44-7.697-12.708-14.231-17.204-26.338a57.13312,57.13312,0,0,1-2.25-10.503c-.664-5.58-.612-5.401-1.577-5.399-.683.002-3.941-.512-6.927-1.092a1.17875,1.17875,0,0,1-.865-.74c-.151-.579-.171-.575-.501.088-.559,1.126-2.926.951-3.387-.251-.459-1.197,2.328-2.146,3.337-1.136.269.268.472.326.472.134,0-.481,1.677-1.106,3.601-1.342.908-.111,2.418-.345,3.356-.518l1.705-.316.197-1.991c.947-9.538,4.108-19.406,8.322-25.979,3.46-5.396,3.552-5.523,6.463-8.794,1.742-1.96,2.523-2.284,3.063-1.275.273.511.124.816-.991,2.026-3.33,3.614-4.445,5.62-3.328,5.988.183.06,1.121-.875,2.085-2.077,10.049-12.537,26.027-20.612,41.243-20.845,4.975-.077,6.233-.336,3.84-.792-2.712-.516-15.18.636-17.025,1.573a7.42482,7.42482,0,0,1-1.509.436,41.49281,41.49281,0,0,0-8.411,3.375,4.12018,4.12018,0,0,1-1.351.578,4.5302,4.5302,0,0,0-1.693.949c-1.031.958-2.172.844-2.297-.229-.073-.628.171-.933,1.35-1.694,10.284-6.629,25.677-9.563,39.399-7.509m-53.07,3.508a25.08785,25.08785,0,0,1-3.896,3.789c-2.204,1.792-8.607,8.994-9.018,10.144a7.22263,7.22263,0,0,1-.665,1.111c-.64.915-.552,1.067,1.608,2.779,2.434,1.93,1.309,2.442-1.405.64-2.018-1.339-1.95-1.352-3.129.619a73.40329,73.40329,0,0,0-9.645,28.188c-.462,4.318-.535,4.652-1.023,4.652-.717,0-.771-.804-.316-4.728a71.94694,71.94694,0,0,1,9.98-28.57l1.632-2.54-1.154-.969c-1.412-1.185-.76-1.803.76-.72l.897.639,2.913-3.687c5.32-6.732,13.703-14.366,12.461-11.347m55.272.479c-.238.619.385,1.265.809.84.344-.344.084-1.31-.351-1.31-.153,0-.359.211-.458.47m36.029,2.23c.81631.79043,1.47713,1.41352,1.563,1.501.72032.73381,6.14242,7.86708,6.56769,8.5125,1.55449,2.3592-15.33347-15.68341-8.13069-10.0135m-64.236,1.971c-.25.652.385,1.265.839.81.384-.384.146-1.28-.34-1.28-.175,0-.4.211-.499.47m9.651,2.546c-10.998,1.821-22.313,7.636-28.495,14.645-.502.569-1.164,1.317-1.472,1.664a48.99253,48.99253,0,0,0-12.281,32.438,40.77057,40.77057,0,0,0,1.108,10.802c1.211,5.93,6.262,16.69,9.969,21.233,13.858,16.989,37.544,23.104,57.577,14.863a88.45806,88.45806,0,0,0,10.354-5.644c9.537-7.461,13.126-11.498,17.07-19.199,3.563-6.959,6.908-22.205,4.871-22.205a1.42973,1.42973,0,0,0-.639.075,49.398,49.398,0,0,1-13.458,31.808c-1.467,1.578-1.594,1.631-2.272.953-.655-.655-.638-.699.892-2.381,3.354-3.687,8.539-11.712,8.539-13.217a6.08488,6.08488,0,0,1,.43-1.139c4.428-9.734,4.243-23.87-.469-35.904-2.192-5.6-8.499-13.817-14.361-18.711-9.406-7.855-25.151-12.103-37.363-10.081m68.267,6.867a4.22617,4.22617,0,0,1-1.034,1.276l-1.034.994,1.811,3.072a14.92082,14.92082,0,0,1,1.694,3.421c-.064.192-.799-.853-1.632-2.322-2.077-3.658-2.527-3.878-4.657-2.269a8.30411,8.30411,0,0,1-2.002,1.248c-.755,0-.285-.932.825-1.632a14.53925,14.53925,0,0,0,2.206-1.805,5.119,5.119,0,0,1,1.256-1.064,3.244,3.244,0,0,0,.985-.6c.806-.634,1.582-.79,1.582-.319m-20.652,4.986c.136.652.669.692.79.059.064-.328-.084-.525-.393-.525a.36716.36716,0,0,0-.397.466m23.331,6.136c-.001.247-.199-.004-.44-.56a6.13807,6.13807,0,0,1-.428-1.2c.022-.39.869,1.327.868,1.76m-50.828,1.464c2.361,1.073,3.09,2.408,3.214,5.888l.074,2.1,2.101.15a6.75361,6.75361,0,0,1,5.476,2.676l.975,1.272v17.348c0,16.627-.023,17.377-.573,18.056l-.573.708-10.154.15-10.155.15-1.35.769c-.743.423-1.649.958-2.013,1.19-.595.377-.737.35-1.39-.263-1.548-1.454-2.924-1.638-13.617-1.823-9.029-.156-10.017-.223-10.502-.708-.558-.559-1.016-30.281-.529-34.357.361-3.022,4.393-5.88,7.479-5.301l1.067.2.003-1.909c.007-3.841.77-5.409,3.137-6.44,1.609-.7,25.75-.573,27.33.144m53.541,4.672c.013.813-.464.228-.721-.885-.199-.857-.187-.871.251-.3a2.40923,2.40923,0,0,1,.47,1.185m-78.299.746a35.01966,35.01966,0,0,0-.311,6.314v5.733l-2.476-.087-2.475-.087-.083-1.651c-.125-2.467-.166-2.515-1.562-1.803l-1.206.615v28.195h5.67c6.513,0,8.516.413,10.922,2.249,2.57,1.963,3.089,1.958,5.451-.052,2.089-1.779,4.156-2.197,10.847-2.197h5.82v-28.088l-1.35-.656-1.351-.656v1.76c0,2.18-.355,2.522-2.639,2.55-2.574.03-2.462.313-2.462-6.226,0-4.09-.105-5.878-.36-6.133-.705-.705-22.052-.496-22.435.22m63.805.22c-.345.345-.218.7.25.7a.45132.45132,0,0,0,.45-.45c0-.469-.355-.596-.7-.25m-44.968,10.517c.126,1.307.033,1.321-8.345,1.22l-7.052-.084-.099-.697c-.226-1.596-.358-1.571,7.819-1.484l7.584.08.093.965m6.058,4.586a2.67781,2.67781,0,0,1-.1,3.482l-.7.814-4.431-.033-4.43-.033-.894.961c-.491.528-1.311,1.535-1.821,2.236-.511.702-1.097,1.276-1.303,1.276-.205,0-.814-.574-1.351-1.276-.538-.701-1.376-1.703-1.862-2.226l-.884-.952-4.33-.03c-2.811-.02-4.533-.158-4.91-.393a2.64183,2.64183,0,0,1-.07-4.051c.965-.732,26.34-.521,27.086.225m37.317,1.726a26.785,26.785,0,0,1,.189,3.301c.002,1.248.132,2.175.304,2.175.165,0,.3-.655.3-1.456,0-2.393-.365-5.145-.682-5.145-.176,0-.221.458-.111,1.125m-50.515,11.703a19.10107,19.10107,0,0,0,1.801,2.467,8.93037,8.93037,0,0,1,1.795,2.932,1.43341,1.43341,0,0,1-2.096,1.05c-.503-.314-.57-.205-.749,1.217-.535,4.241-2.249,5.122-2.26,1.161-.007-2.377-.196-2.737-1.23-2.346-2.235.844-2.47-1.115-.439-3.657.747-.934,1.597-2.001,1.89-2.371.514-.648,1.278-.917,1.288-.453m-70.078,2.767c.84192,10.86757,6.02028,23.51494,11.78309,32.79659C9.223,106.54964.38414,87.12314,3.42381,80.93434m63.532,14.124a9.32214,9.32214,0,0,1,2.557,1.451c2.941,2.325,4.213,2.464,6.166.678,2.582-2.361,2.109-2.281,14.022-2.38,11.984-.099,11.754-.137,11.809,1.949.06,2.28.526,2.191-11.482,2.191h-10.703l-1.339,1.224c-3.538,3.235-6.44,3.211-10.109-.084l-1.268-1.14h-10.51c-10.109,0-10.532-.023-11.109-.6-.926-.926-.564-3.1.567-3.402,1.065-.285,20.334-.183,21.399.113m56.954,2.089c0,.165.202.3.45.3.247,0,.45-.135.45-.3,0-.166-.203-.301-.45-.301-.248,0-.45.135-.45.301m-86.217,5.138c7.858,8.358,16.199,13.423,25.343,15.391,1.018.219,1.265.883.619,1.657-.515.617-4.355.198-5.312-.579a7.01282,7.01282,0,0,0-1.65-.601c-5.821-1.543-16.623-9.011-21.26-14.7l-1.32-1.619.67-.543c.995-.806,1.323-.693,2.91.994m81.115,2.031c0,.148.214.35.475.45.734.282.831.221.426-.268-.414-.498-.901-.597-.901-.182m-87.721,4.734a1.27976,1.27976,0,0,0-.201.75c0,.693,1.143.75,1.404.069.246-.64-.723-1.3-1.203-.819m69.814,2.621c.589,1.534-13.114,8.469-15.535,7.862-.16161-.04074-.36214-.34847-.56684-.314-.25256.04253-.51023.44475-.69416.574-.545.381-3.122.803-7.076,1.157-1.881.169-2.582-.314-2.169-1.494.261-.745.47-.865,1.643-.941a33.43926,33.43926,0,0,0,3.508-.526c3.121-.631,3.811-.581,4.29.316.199.371.416.6464.54613.67016s.17337-.20415.47987-.48315a5.78922,5.78922,0,0,1,1.824-.936c3.206-.987,11.797-5.187,12.311-6.02a.93255.93255,0,0,1,1.439.135m-83.621,3.129a1.85894,1.85894,0,0,0-.497.9c0,.193-.292.351-.649.351a6.02623,6.02623,0,0,0-2.025.767l-1.377.766,1.5-1.392c1.487-1.38,2.309-1.885,3.123-1.922.332-.015.316.097-.075.53m89.581.276c.111.967,1.244,1.332,1.562.503a1.04185,1.04185,0,0,0-1.074-1.328c-.459,0-.563.175-.488.825m-69.598.75a.795.795,0,0,0,1.35,0c.08-.237-.168-.375-.675-.375s-.754.138-.675.375m-17.757,3.717c.67.727.677.764.088.458a1.91884,1.91884,0,0,1-.816-.791c-.245-.639-.108-.577.728.333m52.566,7.51c-.709.285-.22,1.901.574,1.901.508,0,.902-1.227.535-1.669-.375-.453-.499-.479-1.109-.232m2.754,7.506c.443,1.155-.816,10.754-1.443,10.994-.835.321-1.094-.41-1.53-4.311-.686-6.143-.64-7.075.363-7.409.91-.304,2.371.103,2.61.726"
              style="fill-rule:evenodd"/>
    </g>
</svg>